<?xml version="1.0" standalone="no"?>
<!DOCTYPE svg PUBLIC "-//W3C//DTD SVG 20010904//EN"
 "http://www.w3.org/TR/2001/REC-SVG-20010904/DTD/svg10.dtd">
<svg version="1.0" xmlns="http://www.w3.org/2000/svg"
 width="429.000000pt" height="439.000000pt" viewBox="0 0 429.000000 439.000000"
 preserveAspectRatio="xMidYMid meet">
  
  <!-- Fondo -->
  <rect width="100%" height="100%" fill="lightblue" />

  <g transform="translate(0.000000,439.000000) scale(0.100000,-0.100000)"
  fill="#000000" stroke="none">
    <path d="M0 2195 l0 -2195 2145 0 2145 0 0 2195 0 2195 -2145 0 -2145 0 0
    -2195z m2078 2018 c-15 -2 -42 -2 -60 0 -18 2 -6 4 27 4 33 0 48 -2 33 -4z
    m-170 -14 c-263 -38 -550 -140 -787 -278 -175 -103 -411 -305 -534 -458 -291
    -364 -429 -730 -456 -1218 -7 -136 -8 -141 -10 -55 -12 827 504 1582 1297
    1894 150 59 421 125 507 124 35 0 32 -2 -17 -9z m1111 -174 c38 -33 70 -65 70
    -71 1 -14 -961 -970 -1165 -1158 -115 -106 -111 -141 34 -273 585 -532 672
    -615 663 -631 -5 -9 -38 -45 -73 -79 l-63 -63 -25 23 c-14 12 -164 148 -335
    302 -170 154 -340 310 -377 346 -87 85 -131 174 -132 263 -1 96 31 151 160
    276 181 175 605 590 854 837 260 257 300 295 312 291 4 -2 39 -30 77 -63z
    m-658 -76 c47 -6 92 -15 99 -19 14 -9 -32 -69 -109 -145 l-41 -39 -123 3
    c-370 8 -714 -111 -1012 -349 -82 -66 -221 -210 -288 -297 -129 -170 -241
    -451 -277 -698 -13 -91 -13 -299 0 -404 15 -119 63 -297 111 -409 22 -54 46
    -109 52 -123 10 -25 6 -32 -58 -103 -38 -41 -72 -72 -76 -68 -24 25 -134 267
    -167 367 -64 193 -77 285 -77 545 0 241 9 313 61 493 31 105 62 185 115 290
    22 43 37 83 33 88 -3 5 -1 8 4 7 5 -2 37 38 70 88 54 83 162 220 185 235 5 4
    6 12 3 18 -4 7 -2 10 5 9 7 -2 14 4 14 12 0 8 7 14 14 12 19 -4 63 39 56 56
    -2 7 0 10 5 7 5 -3 38 16 72 43 78 60 202 144 246 166 19 10 30 21 26 28 -4 6
    -3 8 3 5 6 -4 50 12 98 34 144 68 322 119 525 152 56 9 349 6 431 -4z m-1261
    -303 c0 -3 -4 -8 -10 -11 -5 -3 -10 -1 -10 4 0 6 5 11 10 11 6 0 10 -2 10 -4z
    m-30 -30 c0 -2 -8 -10 -17 -17 -16 -13 -17 -12 -4 4 13 16 21 21 21 13z m2164
    -385 c32 -33 38 -44 30 -60 -5 -11 -99 -111 -208 -221 l-200 -201 -78 78 -79
    79 213 211 212 212 35 -29 c20 -15 54 -47 75 -69z m-1626 -77 c40 -36 72 -71
    72 -76 0 -5 -88 -99 -196 -209 -228 -232 -239 -249 -239 -379 0 -125 14 -147
    209 -327 203 -189 470 -432 791 -721 138 -124 268 -243 291 -264 l40 -39 210
    210 c265 266 279 289 279 455 0 160 5 153 -299 430 -116 106 -248 228 -294
    272 l-83 79 72 73 c40 39 75 72 78 72 3 0 65 -53 136 -117 301 -271 494 -455
    528 -505 103 -152 115 -393 28 -573 -36 -76 -81 -128 -302 -351 -98 -99 -179
    -184 -179 -190 0 -5 10 -18 23 -29 129 -117 257 -240 257 -247 0 -4 -49 -33
    -110 -63 -60 -30 -107 -49 -104 -42 4 12 -195 199 -220 205 -6 1 -156 -143
    -332 -321 l-321 -324 -72 66 c-39 37 -71 73 -71 81 0 8 144 158 319 335 299
    300 318 321 301 335 -37 30 -822 741 -1054 955 -159 146 -252 239 -276 277
    -100 154 -99 388 1 543 30 46 425 455 439 455 4 0 39 -30 78 -66z m2037 -89
    c20 -31 56 -98 80 -150 191 -411 216 -886 69 -1297 -15 -40 -28 -75 -30 -77
    -4 -4 -58 39 -127 100 l-37 34 25 90 c101 361 58 772 -116 1123 l-48 97 67 67
    c37 37 70 67 74 68 3 0 23 -25 43 -55z m-3508 -1062 c-3 -10 -5 -2 -5 17 0 19
    2 27 5 18 2 -10 2 -26 0 -35z m10 -95 c-3 -7 -5 -2 -5 12 0 14 2 19 5 13 2 -7
    2 -19 0 -25z m1238 -322 l69 -65 -267 -268 -267 -268 -77 77 -77 77 260 263
    c191 195 263 261 274 256 8 -4 46 -37 85 -72z m451 -432 c41 -37 74 -71 74
    -76 0 -10 -451 -478 -461 -478 -15 0 -150 134 -147 146 2 10 446 470 457 473
    1 1 36 -29 77 -65z"/>
  </g>
</svg>
